# xmcd
#
# Track frame offsets:
# 150
# 22747
# 40115
#
# Disc length: 808 seconds
#
# Revision: 1
# Processed by: cddbd v1.5.2PL0 Copyright (c) Steve Scherf et al.
# Submitted via: CedeCatalogueitor 2.6.0.6 http://personales.ya.com/cdcatalogueitor
#
DISCID=14032603
DTITLE=Polly Scattergood - Nitrogen Pink Cd Single
DYEAR=1900
DGENRE=
TTITLE0=Nitrogen Pink
TTITLE1=Nitrogen Pink - Edit
TTITLE2=Corridor
EXTD=
EXTT0=
EXTT1=
EXTT2=
PLAYORDER=
